<?xml version="1.0" encoding="UTF-8"?>
<svg width="131px" height="71px" viewBox="0 0 131 71" version="1.1" xmlns="http://www.w3.org/2000/svg" xmlns:xlink="http://www.w3.org/1999/xlink">
    <title>Group 44</title>
    <defs>
        <polygon id="path-1" points="0.722898 0.5403915 6.678045 0.5403915 6.678045 8.0040015 0.722898 8.0040015"></polygon>
    </defs>
    <g id="Revised" stroke="none" stroke-width="1" fill="none" fill-rule="evenodd">
        <g id="SET-Home-Copy-2" transform="translate(-522.000000, -3374.000000)">
            <g id="Group-44" transform="translate(522.000000, 3374.000000)">
                <polygon id="Fill-1" fill="#152636" points="13.260753 -0.000297 -0.000297 66.495033 6.536673 66.495033 9.245313 52.764723 19.984833 42.586533 29.885328 66.495033 37.448433 66.495033 25.027893 38.383983 43.425558 20.452608 35.021943 20.452608 11.018403 43.986888 19.799208 -0.000297"></polygon>
                <path d="M55.4179725,0.5596965 L54.1096875,7.3773315 L61.4886525,7.3773315 L62.8890075,0.5596965 L55.4179725,0.5596965 Z M52.0544475,20.4527565 L42.9038775,66.4951815 L49.4408475,66.4951815 L58.5929025,20.4527565 L52.0544475,20.4527565 Z" id="Fill-2" fill="#152636"></path>
                <polygon id="Fill-3" fill="#152636" points="67.491765 47.9243655 69.45642 52.3719405 68.25951 52.3719405 66.69432 48.5881605 64.993995 50.1993855 64.56483 52.3719405 63.529785 52.3719405 65.629575 41.8477455 66.663135 41.8477455 65.27466 48.8094255 69.07329 45.0865305 70.402365 45.0865305"></polygon>
                <g id="Group-43" transform="translate(60.400000, 41.485851)">
                    <path d="M17.1242765,6.2906085 L16.2080315,10.8866835 L15.1759565,10.8866835 L16.0743815,6.3915885 C16.1204165,6.1569585 16.1501165,5.9045085 16.1501165,5.7129435 C16.1501165,4.8263985 15.5873015,4.4120835 14.8180715,4.4120835 C14.3161415,4.4120835 13.0301315,4.6630485 12.6767015,6.4212885 L11.7886715,10.8866835 L10.7536265,10.8866835 L12.2044715,3.5997885 L13.2068465,3.5997885 L13.0598315,4.4120835 C13.5483965,3.8492685 14.2433765,3.5106885 15.2041715,3.5106885 C16.3119815,3.5106885 17.2133765,4.2502185 17.2133765,5.5659285 C17.2133765,5.7708585 17.1688265,6.0678585 17.1242765,6.2906085" id="Fill-4" fill="#152636"></path>
                    <path d="M22.400036,4.412529 C21.898106,4.412529 21.396176,4.633794 21.054626,4.973859 C20.613581,5.417874 20.303216,6.051969 20.065616,7.250364 C19.960181,7.767144 19.917116,8.211159 19.917116,8.506674 C19.917116,9.630819 20.580911,10.074834 21.320441,10.074834 C21.838706,10.074834 22.342121,9.850599 22.680701,9.512019 C23.124716,9.068004 23.433596,8.432424 23.671196,7.250364 C23.776631,6.717249 23.819696,6.276204 23.819696,5.980689 C23.819696,4.856544 23.154416,4.412529 22.400036,4.412529 M24.689906,7.250364 C24.379541,8.846739 23.907311,9.644184 23.317766,10.192149 C22.710401,10.738629 22.015421,10.974744 21.249161,10.974744 C20.080466,10.974744 18.898406,10.322829 18.898406,8.580924 C18.898406,8.136909 18.986021,7.575579 19.045421,7.250364 C19.340936,5.655474 19.813166,4.840209 20.419046,4.308579 C21.024926,3.763584 21.721391,3.511134 22.489136,3.511134 C23.642981,3.511134 24.838406,4.160079 24.838406,5.904954 C24.838406,6.348969 24.750791,6.925149 24.689906,7.250364" id="Fill-6" fill="#152636"></path>
                    <polygon id="Fill-8" fill="#152636" points="32.8284485 10.886238 31.8810185 10.886238 31.1741585 5.240268 28.2605885 10.886238 27.3146435 10.886238 26.5617485 3.600828 27.6101585 3.600828 28.0690235 9.422028 31.0256585 3.600828 31.8676535 3.600828 32.5626335 9.422028 35.2683035 3.600828 36.3612635 3.600828"></polygon>
                    <path d="M37.943234,8.905248 C37.900169,9.114633 37.885319,9.215613 37.885319,9.392328 C37.885319,9.763578 38.062034,9.998208 38.682764,9.998208 L39.288644,9.998208 L39.111929,10.886238 L38.344184,10.886238 C37.692269,10.886238 36.850274,10.575873 36.850274,9.496278 C36.850274,9.291348 36.863639,9.096813 36.909674,8.905248 L38.624849,0.362043 L39.656924,0.362043 L37.943234,8.905248 Z" id="Fill-10" fill="#152636"></path>
                    <path d="M44.119646,4.3835715 C43.053416,4.3835715 42.212906,5.1216165 41.798591,6.7491765 L45.465056,6.7491765 C45.509606,6.5115765 45.522971,6.3051615 45.522971,6.0096465 C45.522971,4.8706515 44.874026,4.3835715 44.119646,4.3835715 M46.350116,7.5020715 L41.651576,7.5020715 C41.607026,7.7975865 41.562476,8.0931015 41.562476,8.4183165 C41.562476,9.3776265 42.036191,10.0889415 43.129151,10.0889415 C43.985996,10.0889415 44.563661,9.7934265 45.184391,9.2306115 L45.805121,9.9122265 C45.021041,10.6354215 44.162711,10.9740015 43.053416,10.9740015 C41.635241,10.9740015 40.571981,10.1468565 40.571981,8.4613815 C40.571981,6.2903115 41.577326,3.5103915 44.162711,3.5103915 C45.714536,3.5103915 46.528316,4.6196865 46.528316,6.0096465 C46.528316,6.3779265 46.454066,6.9407415 46.350116,7.5020715" id="Fill-12" fill="#152636"></path>
                    <path d="M51.604046,4.427082 C50.124986,4.427082 49.608206,5.727942 49.327541,7.236702 C49.239926,7.677747 49.164191,8.167797 49.164191,8.550927 C49.164191,9.348372 49.446341,10.059687 50.466536,10.059687 C51.944111,10.059687 52.475741,8.742492 52.756406,7.236702 C52.846991,6.792687 52.919756,6.305607 52.919756,5.919507 C52.919756,5.122062 52.624241,4.427082 51.604046,4.427082 L51.604046,4.427082 Z M53.066771,10.886832 L52.048061,10.886832 L52.224776,10.013652 C51.559496,10.812582 50.879366,10.974447 50.200721,10.974447 C48.632561,10.974447 48.115781,9.940887 48.115781,8.684577 C48.115781,8.240562 48.173696,7.737147 48.279131,7.236702 C48.530096,5.965542 48.868676,4.945347 49.535441,4.278582 C50.110136,3.702402 50.745716,3.510837 51.485246,3.510837 C52.150526,3.510837 52.890056,3.715767 53.288036,4.516182 L54.131516,0.362637 L55.165076,0.362637 L53.066771,10.886832 Z" id="Fill-14" fill="#152636"></path>
                    <path d="M59.3321345,4.427082 C57.8991095,4.427082 57.3511445,5.727942 57.0704795,7.190667 C56.9828645,7.649532 56.9071295,8.093547 56.9071295,8.461827 C56.9071295,9.290457 57.2026445,9.940887 58.2243245,9.940887 C59.6276495,9.940887 60.2038295,8.623692 60.4844945,7.175817 C60.5750795,6.716952 60.6478445,6.275907 60.6478445,5.904657 C60.6478445,4.915647 60.1889795,4.427082 59.3321345,4.427082 L59.3321345,4.427082 Z M60.7369445,11.048697 C60.2186795,13.665267 58.5629045,14.211747 57.3362945,14.211747 C56.3472845,14.211747 55.6508195,13.886532 55.1043395,13.237587 L55.8438695,12.587157 C56.1690845,12.985137 56.5819145,13.323717 57.3362945,13.323717 C58.3728245,13.323717 59.3633195,12.702987 59.7167495,11.048697 L59.9543495,9.926037 C59.4939995,10.502217 58.9029695,10.857132 57.9421745,10.857132 C56.6427995,10.857132 55.8587195,10.043352 55.8587195,8.608842 C55.8587195,8.255412 55.9032695,7.798032 56.0220695,7.175817 C56.2581845,5.904657 56.5967645,4.915647 57.2501645,4.265217 C57.8100095,3.702402 58.5198395,3.510837 59.1984845,3.510837 C59.8934645,3.510837 60.6478445,3.715767 61.0339445,4.529547 L61.2106595,3.599937 L62.2293695,3.599937 L60.7369445,11.048697 Z" id="Fill-16" fill="#152636"></path>
                    <g id="Group-20" transform="translate(62.855000, 2.970000)">
                        <mask id="mask-2" fill="white">
                            <use xlink:href="#path-1"></use>
                        </mask>
                        <g id="Clip-19"></g>
                        <path d="M4.270563,1.4135715 C3.204333,1.4135715 2.363823,2.1516165 1.949508,3.7791765 L5.615973,3.7791765 C5.660523,3.5415765 5.673888,3.3351615 5.673888,3.0396465 C5.673888,1.9006515 5.024943,1.4135715 4.270563,1.4135715 M6.501033,4.5320715 L1.802493,4.5320715 C1.757943,4.8275865 1.713393,5.1231015 1.713393,5.4483165 C1.713393,6.4076265 2.187108,7.1189415 3.280068,7.1189415 C4.136913,7.1189415 4.714578,6.8234265 5.335308,6.2606115 L5.956038,6.9422265 C5.171958,7.6654215 4.313628,8.0040015 3.204333,8.0040015 C1.786158,8.0040015 0.722898,7.1768565 0.722898,5.4913815 C0.722898,3.3203115 1.728243,0.5403915 4.313628,0.5403915 C5.865453,0.5403915 6.679233,1.6496865 6.679233,3.0396465 C6.679233,3.4079265 6.604983,3.9707415 6.501033,4.5320715" id="Fill-18" fill="#152636" mask="url(#mask-2)"></path>
                    </g>
                    <path d="M3.2662565,15.5341395 L2.0990465,15.5341395 L2.3054615,14.4545445 L3.4890065,14.4545445 L3.2662565,15.5341395 Z M1.3595165,24.8896395 L0.3259565,24.8896395 L1.7738315,17.6042295 L2.8073915,17.6042295 L1.3595165,24.8896395 Z" id="Fill-21" fill="#152636"></path>
                    <path d="M10.3185215,20.2935645 L9.4022765,24.8896395 L8.3687165,24.8896395 L9.2686265,20.3960295 C9.3146615,20.1599145 9.3443615,19.9074645 9.3443615,19.7158995 C9.3443615,18.8308395 8.7815465,18.4150395 8.0123165,18.4150395 C7.5103865,18.4150395 6.2243765,18.6674895 5.8694615,20.4272145 L4.9829165,24.8896395 L3.9493565,24.8896395 L5.3972315,17.6027445 L6.4010915,17.6027445 L6.2540765,18.4150395 C6.7411565,17.8522245 7.4376215,17.5136445 8.3969315,17.5136445 C9.5062265,17.5136445 10.4091065,18.2531745 10.4091065,19.5688845 C10.4091065,19.7752995 10.3615865,20.0708145 10.3185215,20.2935645" id="Fill-23" fill="#152636"></path>
                    <path d="M15.7640165,18.386676 L14.3458415,18.386676 L13.4295965,22.908501 C13.3835615,23.116401 13.3701965,23.218866 13.3701965,23.380731 C13.3701965,23.766831 13.5632465,24.001461 14.1839765,24.001461 L14.7735215,24.001461 L14.5804715,24.889491 L13.8439115,24.889491 C13.1919965,24.889491 12.3336665,24.579126 12.3336665,23.499531 C12.3336665,23.279751 12.3648515,23.086701 12.3930665,22.908501 L13.2959465,18.386676 L12.3930665,18.386676 L12.5415665,17.604081 L13.4578115,17.604081 L13.9018265,15.385491 L14.9353865,15.385491 L14.4943415,17.604081 L15.9258815,17.604081 L15.7640165,18.386676 Z" id="Fill-25" fill="#152636"></path>
                    <path d="M20.047796,18.386676 C18.983051,18.386676 18.142541,19.124721 17.728226,20.752281 L21.391721,20.752281 C21.439241,20.514681 21.452606,20.308266 21.452606,20.012751 C21.452606,18.873756 20.803661,18.386676 20.047796,18.386676 M22.279751,21.506661 L17.579726,21.506661 C17.536661,21.800691 17.492111,22.096206 17.492111,22.421421 C17.492111,23.380731 17.965826,24.092046 19.058786,24.092046 C19.915631,24.092046 20.491811,23.796531 21.114026,23.235201 L21.734756,23.915331 C20.950676,24.637041 20.092346,24.978591 18.983051,24.978591 C17.564876,24.978591 16.500131,24.149961 16.500131,22.465971 C16.500131,20.293416 17.506961,17.513496 20.092346,17.513496 C21.644171,17.513496 22.456466,18.621306 22.456466,20.012751 C22.456466,20.381031 22.383701,20.943846 22.279751,21.506661" id="Fill-27" fill="#152636"></path>
                    <path d="M27.5163065,18.4301865 C26.0817965,18.4301865 25.5338315,19.7310465 25.2561365,21.1952565 C25.1655515,21.6526365 25.0927865,22.0966515 25.0927865,22.4664165 C25.0927865,23.2935615 25.3853315,23.9439915 26.4070115,23.9439915 C27.8118215,23.9439915 28.3865165,22.6282815 28.6671815,21.1789215 C28.7577665,20.7230265 28.8305315,20.2790115 28.8305315,19.9077615 C28.8305315,18.9172665 28.3716665,18.4301865 27.5163065,18.4301865 L27.5163065,18.4301865 Z M28.9196315,25.0518015 C28.4043365,27.6698565 26.7455915,28.2148515 25.5189815,28.2148515 C24.5299715,28.2148515 23.8349915,27.8896365 23.2870265,27.2406915 L24.0265565,26.5902615 C24.3532565,26.9882415 24.7660865,27.3268215 25.5189815,27.3268215 C26.5555115,27.3268215 27.5460065,26.7075765 27.8994365,25.0518015 L28.1370365,23.9291415 C27.6781715,24.5068065 27.0871415,24.8602365 26.1248615,24.8602365 C24.8254865,24.8602365 24.0414065,24.0479415 24.0414065,22.6134315 C24.0414065,22.2585165 24.0859565,21.8011365 24.2062415,21.1789215 C24.4408715,19.9077615 24.7809365,18.9172665 25.4328515,18.2683215 C25.9926965,17.7055065 26.7025265,17.5139415 27.3826565,17.5139415 C28.0776365,17.5139415 28.8305315,17.7218415 29.2166315,18.5341365 L29.3933465,17.6030415 L30.4120565,17.6030415 L28.9196315,25.0518015 Z" id="Fill-29" fill="#152636"></path>
                    <path d="M36.60614,18.9478575 C36.414575,18.6968925 36.10421,18.4295925 35.571095,18.4295925 C34.53605,18.4295925 33.679205,19.3027725 33.45794,20.4269175 L32.56991,24.8893425 L31.53635,24.8893425 L32.98571,17.6039325 L34.00442,17.6039325 L33.827705,18.4889925 C34.27172,17.8845975 34.994915,17.5133475 35.86661,17.5133475 C36.563075,17.5133475 37.065005,17.7509475 37.448135,18.1949625 L36.60614,18.9478575 Z" id="Fill-31" fill="#152636"></path>
                    <path d="M40.492682,21.5059185 C39.383387,21.5059185 38.614157,22.0806135 38.614157,23.1453585 C38.614157,23.7660885 39.043322,24.1061535 40.063517,24.1061535 C40.699097,24.1061535 41.232212,23.9145885 41.615342,23.5284885 C41.910857,23.2493085 42.117272,22.8364785 42.206372,22.3464285 L42.369722,21.5059185 L40.492682,21.5059185 Z M43.698797,19.9837935 L42.724637,24.8887485 L41.704442,24.8887485 L41.867792,24.1640685 C41.319827,24.7120335 40.699097,24.9793335 39.781367,24.9793335 C38.629007,24.9793335 37.596932,24.5071035 37.596932,23.2047585 C37.596932,22.5973935 37.773647,21.9632985 38.245877,21.5059185 C38.836907,20.9282535 39.561587,20.7366885 40.388732,20.7366885 L42.516737,20.7366885 L42.680087,19.9689435 C42.708302,19.8352935 42.739487,19.6570935 42.739487,19.4803785 C42.739487,18.7690635 42.178157,18.4007835 41.275277,18.4007835 C40.373882,18.4007835 39.842252,18.6829335 39.309137,19.2724785 L38.704742,18.5641335 C39.353687,17.8528185 40.108067,17.5142385 41.333192,17.5142385 C42.369722,17.5142385 43.774532,17.8379685 43.774532,19.4061285 C43.774532,19.5546285 43.728497,19.8204435 43.698797,19.9837935 L43.698797,19.9837935 Z" id="Fill-33" fill="#152636"></path>
                    <path d="M49.0749425,18.386676 L47.6567675,18.386676 L46.7405225,22.908501 C46.6944875,23.116401 46.6811225,23.218866 46.6811225,23.380731 C46.6811225,23.766831 46.8741725,24.001461 47.4949025,24.001461 L48.0829625,24.001461 L47.8913975,24.889491 L47.1533525,24.889491 C46.5029225,24.889491 45.6445925,24.579126 45.6445925,23.499531 C45.6445925,23.279751 45.6757775,23.086701 45.7039925,22.908501 L46.6068725,18.386676 L45.7039925,18.386676 L45.8524925,17.604081 L46.7687375,17.604081 L47.2127525,15.385491 L48.2463125,15.385491 L47.8052675,17.604081 L49.2368075,17.604081 L49.0749425,18.386676 Z" id="Fill-35" fill="#152636"></path>
                    <path d="M52.706213,15.5341395 L51.537518,15.5341395 L51.745418,14.4545445 L52.925993,14.4545445 L52.706213,15.5341395 Z M50.799473,24.8896395 L49.764428,24.8896395 L51.212303,17.6042295 L52.247348,17.6042295 L50.799473,24.8896395 Z" id="Fill-37" fill="#152636"></path>
                    <path d="M57.091715,18.4156335 C56.589785,18.4156335 56.087855,18.6368985 55.749275,18.9769635 C55.30526,19.4209785 54.99341,20.0550735 54.757295,21.2534685 C54.653345,21.7702485 54.608795,22.2142635 54.608795,22.5097785 C54.608795,23.6339235 55.274075,24.0779385 56.01212,24.0779385 C56.53187,24.0779385 57.0338,23.8537035 57.37238,23.5151235 C57.816395,23.0711085 58.12676,22.4355285 58.362875,21.2534685 C58.46831,20.7233235 58.511375,20.2793085 58.511375,19.9837935 C58.511375,18.8596485 57.846095,18.4156335 57.091715,18.4156335 M59.384555,21.2534685 C59.07419,22.8498435 58.600475,23.6472885 58.00796,24.1967385 C57.40208,24.7417335 56.708585,24.9793335 55.94084,24.9793335 C54.772145,24.9793335 53.590085,24.3259335 53.590085,22.5840285 C53.590085,22.1414985 53.6777,21.5786835 53.7371,21.2534685 C54.032615,19.6570935 54.50633,18.8447985 55.11221,18.3116835 C55.716605,17.7666885 56.41307,17.5142385 57.1823,17.5142385 C58.33466,17.5142385 59.533055,18.1631835 59.533055,19.9080585 C59.533055,20.3520735 59.44247,20.9282535 59.384555,21.2534685" id="Fill-39" fill="#152636"></path>
                    <path d="M67.258916,20.2935645 L66.341186,24.8896395 L65.309111,24.8896395 L66.207536,20.3960295 C66.253571,20.1599145 66.283271,19.9074645 66.283271,19.7158995 C66.283271,18.8308395 65.720456,18.4150395 64.951226,18.4150395 C64.449296,18.4150395 63.163286,18.6674895 62.809856,20.4272145 L61.921826,24.8896395 L60.888266,24.8896395 L62.337626,17.6027445 L63.340001,17.6027445 L63.192986,18.4150395 C63.681551,17.8522245 64.376531,17.5136445 65.337326,17.5136445 C66.445136,17.5136445 67.348016,18.2531745 67.348016,19.5688845 C67.348016,19.7752995 67.301981,20.0708145 67.258916,20.2935645" id="Fill-41" fill="#152636"></path>
                </g>
            </g>
        </g>
    </g>
</svg>